<?xml version="1.0" encoding="utf-8"?>
<!-- Generator: Adobe Illustrator 16.0.0, SVG Export Plug-In . SVG Version: 6.00 Build 0)  -->
<!DOCTYPE svg PUBLIC "-//W3C//DTD SVG 1.1//EN" "http://www.w3.org/Graphics/SVG/1.1/DTD/svg11.dtd">
<svg version="1.1" id="Layer_1" xmlns="http://www.w3.org/2000/svg" xmlns:xlink="http://www.w3.org/1999/xlink" x="0px" y="0px"
	 width="768px" height="768px" viewBox="0 0 768 768" enable-background="new 0 0 768 768" xml:space="preserve">
<g>
	<path fill-rule="evenodd" clip-rule="evenodd" fill="#21B573" d="M9.845,329.578c8.545-49.022,42.656-80.469,97.899-82.406
		c71.439-2.481,143.097-0.714,214.658-1.005c17.018-0.132,23.917,8.159,23.65,24.607c-0.363,21.667-0.847,43.371,0.146,64.927
		c1.064,19.621-7.093,26.387-26.266,26.098c-53.284-0.8-106.567,0.133-159.801-0.45c-18.544-0.216-29.534,2.786-29.753,25.48
		c-0.168,23.047,11.112,25.744,29.438,25.298c30.794-0.727,61.539-0.786,92.405,0.183c67.711,2.033,107.414,43.005,108.09,110.765
		c0.219,22.491,0.219,44.943,0,67.434c-0.58,56.176-35.223,98.663-90.25,109.482c-16.219,3.269-32.899,5.133-49.482,5.217
		c-57.398,0.715-114.845-0.157-172.292,0.594c-18.108,0.169-32.536-4.575-42.752-19.973c0-3.293,0-76.607,0-84.959
		c5.689-16.474,17.479-22.199,34.497-22.199c39.896,0,79.864,0,119.735-0.097c5.06-0.061,44.472,1.525,44.907-14.875
		c0.412-16.79-17.212-14.647-29.122-15.156c-21.594-0.957-43.382-1.634-64.879-0.036C58.867,552.162,3.962,513.199,8.005,446.409
		C9.167,407.433,5.753,368.457,9.845,329.578z"/>
	<path fill-rule="evenodd" clip-rule="evenodd" fill="#21B573" d="M765.126,166.268c-7.383,12.468-19.754,10.325-31.18,10.506
		c-14.963,0.291-29.945,0.497-44.859,0.049c-20.623-0.557-30.211,7.166-29.631,29.414c0.943,35.029-0.121,35.029,36.168,35.163
		c15.008,0.06,30.02,0.242,44.957,0.108c16.703-0.108,24.279,8.17,24.182,24.561c-0.217,21.642-0.217,43.248,0,64.866
		c0.098,14.803-7.479,21.121-21.545,21.23c-19.102,0.109-38.273,0.824-57.277,0.207c-16.268-0.558-22.176,6.718-21.811,22.428
		c0.58,29.91-0.146,59.868,0.168,89.838c0.049,12.129-1.959,22.683-12.225,30.987c-29.221,23.397-57.859,47.485-86.932,71.027
		c-7.846,6.295-16.801,12.264-27.334,7.167c-10.457-5.012-7.576-15.736-7.625-24.464c-0.217-54.081-0.799-108.15,0.219-162.209
		c0.363-19.657-6.586-26.629-26.025-25.855c-28.227,1.079-56.6-0.507-84.826,0.51c-20.891,0.677-31.106-6.562-29.802-28.724
		c1.067-19.113,0.944-38.358,0.051-57.423c-1.139-21.085,7.263-30.515,28.952-29.776c28.229,0.98,56.623-0.4,84.9,0.399
		c16.195,0.448,22.318-6.028,21.689-22.042c-0.848-18.242-0.217-36.591-0.049-54.918c0.363-57.071,22.369-87.029,76.959-105.234
		c6.174-1.984,112.377-6.898,152.031-5.374c10.215-0.944,14.258,4.067,13.313,13.811
		C766.022,103.713,770.815,135.111,765.126,166.268z"/>
</g>
</svg>
